<svg width="122" height="120" viewBox="0 0 122 120" fill="none" xmlns="http://www.w3.org/2000/svg">
<path d="M61.6063 4.50896C60.8896 3.87453 60.2936 3.9805 59.5577 4.47138C54.6254 7.76141 49.666 11.0108 44.7079 14.2621C42.8491 15.4811 41.3455 14.7571 41.1866 12.5427C41.103 11.3786 41.119 10.2043 41.1494 9.03616C41.1667 8.37006 40.9762 8.06073 40.2595 8.09807C39.3986 8.1429 38.5324 8.13513 37.6708 8.09745C37.011 8.06859 36.8046 8.33034 36.8107 8.97846C36.8361 11.707 36.7649 14.4374 36.838 17.1643C36.8776 18.6404 36.3641 19.6429 35.0705 20.3694C33.763 21.1037 32.5489 22.0026 31.2623 22.7768C30.6648 23.1364 30.4467 23.5739 30.4493 24.2678C30.4783 32.0923 30.4814 39.9169 30.4881 47.7414C30.4919 52.0853 30.5095 56.4294 30.4719 60.773C30.4647 61.6068 30.6834 61.8986 31.5468 61.8624C33.5051 61.7803 33.2686 62.0884 33.2689 60.1026C33.2707 49.2986 33.263 38.4945 33.2582 27.6905C33.2575 26.0987 33.8844 25.434 35.4631 25.4307C40.3917 25.4204 45.3217 25.3583 50.2486 25.4516C53.2884 25.5091 56.2961 25.9504 59.0738 27.3307C59.4062 27.4958 59.6368 27.4308 59.9177 27.2639C62.1572 25.9336 64.602 25.4127 67.1848 25.416C73.2829 25.4238 79.3812 25.4004 85.4792 25.431C88.1331 25.4442 90.5183 26.2531 92.463 28.1386C95.4455 31.0303 96.1255 36.6911 93.8956 40.2045C93.3631 41.0434 92.7537 41.8335 92.123 42.7264C92.9576 43.306 93.8301 43.736 94.5813 44.3466C97.6558 46.8455 99.0089 50.0804 98.8894 54.0144C98.7018 60.1914 93.4006 65.0937 86.8413 65.0884C82.0797 65.0846 77.3181 65.0977 72.5565 65.0984C72.2869 65.0984 72.0007 65.1733 71.7047 64.962C71.8281 64.4382 72.379 64.273 72.6502 63.8843C73.8887 62.1093 75.5684 61.6474 77.6918 61.7808C80.5763 61.9621 83.4815 61.864 86.3766 61.8121C89.3874 61.7581 92.042 60.844 93.7755 58.1924C95.6122 55.383 95.6895 52.4124 94.1504 49.4782C92.6592 46.6352 90.2127 45.1738 86.9857 45.0674C85.2899 45.0116 83.6541 45.2107 82.1838 46.163C81.5451 46.5767 81.2318 46.9916 81.4972 47.8614C82.1122 49.877 80.7866 52.2751 78.7648 52.9605C78.1593 53.1658 77.8604 53.4123 77.7169 54.1245C77.3869 55.7619 76.3513 56.9069 74.7043 57.3782C74.1557 57.5351 73.911 57.8013 73.755 58.3665C73.2568 60.1711 72.0133 61.2312 70.1822 61.5747C69.7708 61.6519 69.4818 61.751 69.285 62.1758C67.8174 65.344 64.7979 66.1399 61.917 64.1414C61.7812 64.0472 61.6418 63.9583 61.47 63.8443C60.9541 64.2727 60.4764 64.7333 59.9377 65.1059C57.3318 66.9087 54.4708 66.1325 53.1755 63.2602C52.9659 62.7953 52.6983 62.568 52.2121 62.4864C50.3712 62.1773 49.1355 61.1356 48.5551 59.3543C48.4268 58.9604 48.2216 58.7923 47.7959 58.7313C45.9798 58.4708 44.7052 57.5186 44.2191 55.6932C44.0636 55.109 43.7631 54.8156 43.1653 54.6858C40.8146 54.1751 38.8275 51.2542 40.3651 48.5134C40.5772 48.1354 40.6665 47.8075 40.289 47.4775C39.2902 46.6046 38.1621 45.986 36.8898 45.6415C36.5784 45.9625 36.6949 46.3139 36.6946 46.6289C36.689 51.9752 36.6941 57.3215 36.6951 62.6679C36.6955 64.4087 36.014 65.0919 34.2711 65.0962C32.6004 65.1003 30.9296 65.1002 29.2589 65.0977C27.5847 65.0952 26.9322 64.4543 26.9295 62.7802C26.9215 57.7402 26.921 52.7001 26.92 47.6601C26.9186 40.6987 26.9199 33.7374 26.9179 26.776C26.9179 26.5296 26.895 26.2833 26.8831 26.0435C26.483 25.9156 26.2705 26.1866 26.0284 26.3458C24.4467 27.3858 22.8716 28.4359 21.2929 29.4805C21.1075 29.6032 20.9209 29.7285 20.7213 29.8245C19.738 30.2976 18.6273 30.0275 18.1335 29.2046C17.5855 28.2913 17.8214 27.2273 18.7881 26.5861C20.7135 25.3089 22.6632 24.0685 24.6032 22.8133C27.2443 21.1045 29.8798 19.387 32.5319 17.6955C33.0543 17.3623 33.2884 16.98 33.2816 16.3396C33.2472 13.1099 33.2576 9.87965 33.2514 6.64958C33.2483 5.02988 33.7636 4.52012 35.3915 4.50382C37.6739 4.48097 39.956 4.43339 42.2384 4.41998C44.0833 4.40914 44.5377 4.8902 44.5592 6.74219C44.5706 7.73143 44.502 8.72808 44.6985 9.83464C45.3749 9.41293 45.9624 9.06017 46.5364 8.68662C50.6428 6.01402 54.7727 3.37604 58.8354 0.638398C60.0789 -0.199502 61.0688 -0.213147 62.3255 0.600743C72.0921 6.92607 81.8919 13.2 91.6801 19.4919C95.2395 21.7799 98.7956 24.073 102.352 26.3656C102.895 26.7156 103.44 27.0746 103.525 27.7954C103.608 28.5054 103.441 29.1342 102.822 29.5594C102.142 30.0255 101.396 30.0884 100.691 29.679C99.6085 29.051 98.5583 28.3664 97.5054 27.6888C89.6644 22.642 81.8232 17.5954 73.9879 12.5395C69.8715 9.88328 65.767 7.20856 61.6063 4.50896ZM67.6592 38.6382C67.1801 38.2137 66.714 37.7734 66.2194 37.368C65.1872 36.5219 64.3608 36.4812 63.261 37.2577C62.3749 37.8834 61.5418 38.5845 60.6535 39.2069C58.1171 40.9839 55.3983 41.5761 52.4556 40.3159C49.8864 39.2157 49.4265 36.7993 51.4048 34.8475C52.8513 33.4205 54.33 32.0263 55.7854 30.6083C55.9932 30.4058 56.2826 30.245 56.3137 29.8533C55.1147 29.2749 53.8243 29.0416 52.5212 29.0202C47.5394 28.9384 42.5565 28.9224 37.5744 28.8516C36.8528 28.8413 36.6753 29.128 36.6788 29.7886C36.6997 33.6863 36.7035 37.5842 36.6795 41.4819C36.6756 42.123 36.9282 42.3515 37.5212 42.4631C39.3186 42.8016 40.888 43.63 42.1796 44.9162C42.679 45.4135 43.0172 45.426 43.5836 45.0232C45.782 43.4597 48.1717 43.8146 49.8469 45.9381C50.1489 46.3209 50.3701 46.36 50.8124 46.2028C53.5984 45.2129 56.0757 46.6592 56.5945 49.5534C56.6683 49.9648 56.7963 50.2251 57.2656 50.369C59.4564 51.0405 60.6667 52.8702 60.4436 55.1387C60.3905 55.6795 60.5401 55.9889 61.0071 56.2945C62.3502 57.1735 63.0747 58.4349 63.0967 60.0683C63.1108 61.1165 63.9461 61.9685 64.9805 61.9853C65.525 61.9941 65.9549 61.7622 66.2136 61.2755C66.4779 60.7782 66.2999 60.3626 65.9246 60.0022C65.6436 59.7322 65.3596 59.4655 65.0769 59.1973C64.2493 58.4121 63.3961 57.6517 62.603 56.833C62.071 56.2838 61.9725 55.594 62.3497 54.9051C62.699 54.2672 63.284 54.066 63.9823 54.1625C64.4494 54.2271 64.7789 54.5234 65.1084 54.8323C66.2655 55.9169 67.4074 57.0198 68.6052 58.0579C69.3014 58.6613 70.0881 58.5716 70.4861 57.9287C70.8867 57.2815 70.7119 56.7201 70.1613 56.2259C68.6078 54.8317 67.0662 53.4242 65.5152 52.0273C65.1194 51.6708 64.7018 51.3216 64.5615 50.7886C64.382 50.1069 64.5642 49.5133 65.1624 49.1006C65.8189 48.6477 66.6464 48.7068 67.3146 49.3067C68.7434 50.5893 70.1486 51.8982 71.5582 53.2019C71.9479 53.5623 72.3419 53.9108 72.822 54.1501C73.41 54.4431 73.9372 54.3135 74.3142 53.8242C74.6943 53.331 74.6793 52.7812 74.2203 52.3106C73.9096 51.9922 73.5778 51.694 73.2496 51.3931C71.5676 49.8507 69.8675 48.3275 68.2077 46.7616C67.4473 46.0442 67.3849 45.1732 67.9372 44.5249C68.516 43.8455 69.4299 43.7711 70.2742 44.3469C70.4802 44.4874 70.6681 44.6563 70.8545 44.823C72.5972 46.3816 74.3281 47.9534 76.0836 49.4974C76.7944 50.1225 77.6244 50.1473 78.1028 49.6328C78.5963 49.1022 78.4748 48.3423 77.7859 47.6579C77.6872 47.5599 77.5873 47.4628 77.4834 47.3704C74.2389 44.4849 70.9939 41.6002 67.6592 38.6382ZM86.26 29.0203C79.3874 28.9977 72.5147 28.9765 65.6421 28.9514C64.0918 28.9458 62.7013 29.4161 61.4009 30.2505C59.8653 31.2359 58.6124 32.5487 57.2728 33.7561C56.1247 34.791 55.0848 35.9461 53.9262 37.1199C54.7528 37.6148 55.5456 37.6902 56.381 37.5028C58.2046 37.0936 59.6147 35.928 61.0914 34.8952C63.8748 32.9485 66.2833 33.0199 68.8326 35.2215C71.0854 37.167 73.3047 39.1513 75.5307 41.1276C76.7491 42.2094 77.9506 43.3102 79.2045 44.4429C81.2233 42.4927 83.6634 41.8844 86.2917 41.7959C87.062 41.77 87.7581 41.4931 88.4127 41.1094C90.5791 39.8395 91.8585 37.2871 91.5293 34.9082C91.0998 31.805 89.3025 29.7432 86.26 29.0203ZM53.3336 49.6567C52.5171 48.9004 51.8814 48.9011 51.0447 49.7603C49.9011 50.9347 48.7894 52.141 47.6881 53.3554C47.1018 54.0019 47.0701 54.7732 47.5474 55.2153C48.0193 55.6524 48.8026 55.5914 49.4181 54.9956C50.576 53.8746 51.7143 52.7326 52.8357 51.5751C53.3133 51.0821 53.6406 50.5014 53.3336 49.6567ZM57.19 54.6094C57.0538 53.5173 56.2135 52.9949 55.4167 53.6188C53.991 54.7352 52.7782 56.0877 51.7165 57.5543C51.3866 58.0101 51.4559 58.5861 51.9234 58.9915C52.3879 59.3942 52.9877 59.5392 53.4516 59.1256C54.7386 57.9783 55.9488 56.7457 57.0076 55.3783C57.1317 55.218 57.1285 54.9591 57.19 54.6094ZM43.3576 49.998C43.0945 50.5996 43.1247 51.1566 43.7035 51.5484C44.3033 51.9544 44.8266 51.6851 45.2662 51.239C45.9096 50.5858 46.5574 49.9324 47.1456 49.2307C47.5741 48.7195 47.7021 48.099 47.1448 47.5864C46.6206 47.1042 46.031 47.1243 45.4998 47.6219C44.7492 48.325 44.0093 49.0395 43.3576 49.998ZM59.8526 59.8153C59.6389 58.7466 58.8062 58.4064 57.9985 59.1198C57.3583 59.6853 56.7956 60.342 56.2258 60.9826C55.8479 61.4075 55.8233 61.9051 56.1896 62.3464C56.5804 62.8175 57.1745 63.0483 57.6744 62.7159C58.6824 62.0456 59.6504 61.2813 59.8526 59.8153Z" fill="#3B82F6"/>
<path d="M4.5615 76.8656C7.0626 76.9448 9.49339 76.6611 11.8977 77.0435C14.2109 77.4114 16.4081 78.0668 17.9879 79.987C20.8698 83.4899 19.9883 88.9607 16.1436 91.385C15.1578 92.0067 15.1379 92.0202 15.8099 93.0072C17.0945 94.8939 18.4057 96.7623 19.7015 98.6413C19.8863 98.9092 20.1468 99.1454 20.1358 99.5241C19.9224 99.7896 19.6229 99.6838 19.3636 99.6869C18.1666 99.7012 16.9671 99.6537 15.773 99.7147C15.0335 99.7525 14.5934 99.4641 14.2076 98.867C13.0598 97.0902 11.8547 95.3504 10.704 93.5755C10.3761 93.0696 9.96896 92.8606 9.38872 92.8791C8.27629 92.9146 7.16263 92.9648 6.0507 92.944C5.34057 92.9306 5.06083 93.1579 5.08247 93.904C5.13006 95.5452 5.08018 97.1891 5.10847 98.8312C5.1195 99.4716 4.90325 99.7349 4.23959 99.7114C3.12732 99.6722 2.01216 99.6787 0.899268 99.7069C0.272518 99.7228 0.00180764 99.5211 0.00326334 98.849C0.0185203 91.8053 0.0168732 84.7615 7.48573e-06 77.7178C-0.00157587 77.0568 0.247876 76.8359 0.886701 76.8533C2.083 76.886 3.28078 76.8645 4.5615 76.8656ZM12.8938 81.5244C12.2913 81.156 11.6335 80.8802 10.9384 80.8569C9.18894 80.7982 7.437 80.8148 5.68611 80.7957C5.24894 80.7909 5.10983 81.021 5.11079 81.4238C5.11639 83.7591 5.11856 86.0944 5.10794 88.4296C5.10585 88.8896 5.29008 89.0825 5.75059 89.0781C7.36287 89.0625 8.97859 89.1263 10.5869 89.0424C12.6678 88.9338 14.098 87.784 14.5957 85.9774C15.0665 84.2679 14.4804 82.659 12.8938 81.5244Z" fill="#3B82F6"/>
<path d="M70.3449 79.2612C70.3352 76.8873 70.3352 76.8865 72.6353 76.8888C75.4468 76.8917 78.2593 76.8542 81.0697 76.9144C82.9461 76.9546 84.7955 77.2337 86.3738 78.3911C89.175 80.4455 89.4675 84.4075 87.0175 86.8709C86.7312 87.1588 86.3379 87.3608 86.2022 87.7777C86.339 88.1165 86.6681 88.1852 86.9176 88.3423C89.001 89.6537 89.9383 91.5439 89.7492 93.9829C89.5364 96.7273 88.0121 98.411 85.4249 99.1894C84.3807 99.5035 83.3056 99.6598 82.2157 99.6644C78.6247 99.6797 75.0336 99.6833 71.4426 99.6871C70.3506 99.6882 70.3442 99.6807 70.344 98.5524C70.3429 92.1497 70.3446 85.7471 70.3449 79.2612ZM79.5019 89.3122C77.6941 89.3146 75.8862 89.3285 74.0786 89.3128C73.531 89.308 73.2594 89.4722 73.2651 90.0699C73.2852 92.1835 73.282 94.2973 73.2695 96.411C73.2666 96.9102 73.4619 97.1018 73.9615 97.0991C76.9095 97.0827 79.859 97.1376 82.8054 97.063C85.0632 97.0058 86.57 95.5424 86.6569 93.358C86.7322 91.4634 85.7202 89.9562 83.4928 89.4696C82.2267 89.193 80.9434 89.3681 79.5019 89.3122ZM80.0009 79.4498C78.0541 79.453 76.107 79.4724 74.1605 79.4499C73.5455 79.4428 73.2456 79.5936 73.2584 80.2841C73.2937 82.1747 73.2862 84.0665 73.2634 85.9574C73.256 86.5686 73.489 86.8009 74.0959 86.7929C76.5985 86.7602 79.1016 86.7583 81.6044 86.7333C82.309 86.7262 82.9772 86.5284 83.6109 86.2282C85.0627 85.5407 85.6623 84.4536 85.5707 82.701C85.4987 81.3226 84.709 80.346 83.2937 79.8213C82.2763 79.444 81.2245 79.443 80.0009 79.4498Z" fill="#3B82F6"/>
<path d="M38.9239 88.0576C39.257 89.1813 39.2223 90.2654 39.2248 91.3527C39.2263 92.0222 38.9474 92.2033 38.3184 92.1998C34.6984 92.1796 31.0781 92.1874 27.458 92.1923C26.1197 92.1941 25.9768 92.4522 26.6669 93.633C27.2405 94.6145 28.111 95.2727 29.1675 95.6156C31.223 96.2827 33.2 96.1544 34.8794 94.6484C35.554 94.0436 35.9779 94.1333 36.4977 94.8008C36.9055 95.3246 37.3964 95.7923 37.8952 96.2344C38.3712 96.6563 38.3449 96.9469 37.8626 97.3606C35.2742 99.5806 32.2908 100.266 28.9766 99.7226C25.1417 99.0943 22.5877 96.9697 21.5538 93.1919C19.9382 87.2886 24.3372 81.8166 30.4501 81.9996C33.2973 82.0848 35.7573 82.9074 37.5417 85.242C38.1706 86.0648 38.654 86.9738 38.9239 88.0576ZM34.7232 88.8894C34.1442 86.8118 32.5618 85.5657 30.4147 85.4967C28.5814 85.4378 27.0474 86.541 26.3474 88.3763C26.1005 89.0235 26.2138 89.2823 26.9578 89.2729C29.2653 89.244 31.5735 89.2659 33.8813 89.2556C34.1681 89.2544 34.5103 89.3639 34.7232 88.8894Z" fill="#3B82F6"/>
<path d="M42.2567 85.8379C41.3598 84.0619 41.3488 84.0386 43.1203 83.2016C46.2361 81.7294 49.4683 81.6031 52.7036 82.6654C55.3023 83.5186 56.5924 85.5698 56.7047 88.1842C56.8598 91.7964 56.754 95.4197 56.7788 99.0381C56.7824 99.5654 56.5546 99.7172 56.0752 99.7049C55.3242 99.6855 54.5709 99.6704 53.8211 99.7063C53.1203 99.7399 52.6705 99.5832 52.7874 98.7516C52.8134 98.5671 52.8094 98.3569 52.6121 98.1965C52.2403 98.2202 52.0058 98.5248 51.7107 98.7087C49.1369 100.312 46.4469 100.361 43.7317 99.1925C41.7249 98.3285 40.8107 96.6161 40.8239 94.5164C40.8374 92.3529 41.943 90.7778 43.947 89.8856C44.9527 89.4379 46.0138 89.2405 47.111 89.2274C48.5854 89.2097 50.0594 89.2353 51.534 89.1439C52.2474 89.0997 52.3822 88.8143 52.2165 88.1838C51.8756 86.886 51.0042 86.1453 49.7542 85.842C47.7087 85.3457 45.8459 85.8759 44.1011 86.9556C43.8649 87.1018 43.6338 87.2563 43.3962 87.4001C43.3531 87.4262 43.2897 87.4187 43.1986 87.4323C42.7239 87.036 42.6165 86.3949 42.2567 85.8379ZM46.5873 92.4135C45.6048 92.8332 45.2503 93.589 45.3742 94.6241C45.493 95.6172 46.1337 96.1074 47.0026 96.416C47.5966 96.627 48.2074 96.6187 48.8132 96.571C50.8428 96.4111 52.4037 94.7209 52.313 92.8315C52.2949 92.4541 52.2287 92.1591 51.7709 92.1758C50.0843 92.2374 48.3867 92.0068 46.5873 92.4135Z" fill="#3B82F6"/>
<path d="M113.989 99.8546C110.753 100.196 107.884 99.4663 105.703 97.089C103.272 94.4374 102.599 91.2778 103.902 87.8717C105.22 84.4271 107.861 82.6046 111.486 82.2129C114.414 81.8963 117.025 82.6826 119.084 84.8409C123.096 89.0481 122.05 97.8536 114.713 99.7055C114.498 99.7599 114.279 99.801 113.989 99.8546ZM112.58 97.2787C114.697 97.3427 116.172 96.2893 117.213 94.5506C118.06 93.1338 118.192 91.591 117.999 89.963C117.704 87.4829 115.916 85.339 113.619 84.8684C110.982 84.3284 108.541 85.4584 107.311 87.8388C105.24 91.845 107.495 97.3608 112.58 97.2787Z" fill="#3B82F6"/>
<path d="M65.1073 75.4348C65.4939 75.583 65.5331 75.8602 65.5239 76.1453C65.3838 80.4802 65.4672 84.8161 65.4644 89.1516C65.4624 92.2654 65.5158 95.3792 65.534 98.4931C65.5409 99.6775 65.5101 99.6955 64.3168 99.6978C63.5938 99.6992 62.8686 99.6645 62.1482 99.7084C61.4043 99.7537 61.1378 99.5072 61.1409 98.7177C61.1683 91.7375 61.1544 84.7571 61.1528 77.7767C61.1526 77.2761 61.1826 76.7734 61.146 76.2755C61.0967 75.6073 61.4105 75.3844 62.0333 75.3991C63.0338 75.4227 64.035 75.4134 65.1073 75.4348Z" fill="#3B82F6"/>
<path d="M96.0935 82.6696C96.1212 83.3795 96.1212 84.0167 96.1212 84.7197C96.5925 84.6498 96.7581 84.3374 96.9887 84.1299C98.337 82.9172 99.8409 82.1156 101.727 82.2028C102.278 82.2282 102.577 82.3914 102.524 82.9798C102.519 83.0349 102.524 83.0911 102.525 83.1467C102.558 84.8659 102.555 84.8385 100.883 84.9975C99.0917 85.1679 97.8613 86.1956 97.0491 87.7376C96.5645 88.6574 96.3305 89.6588 96.3339 90.712C96.3426 93.3568 96.3161 96.002 96.3519 98.6464C96.3624 99.4207 96.1549 99.7433 95.3211 99.7116C93.098 99.6269 93.2881 100.031 93.2903 97.6316C93.2947 92.8988 93.3186 88.1657 93.2819 83.4331C93.2751 82.5671 93.5543 82.2528 94.3811 82.3805C94.9408 82.467 95.5493 82.1745 96.0935 82.6696Z" fill="#3B82F6"/>
<rect width="52" height="16" transform="translate(69.399 104)" fill="#3B82F6"/>
<path d="M75.627 117H74.031L77.199 108.228H78.771L81.939 117H80.319L79.611 114.972H76.335L75.627 117ZM77.787 110.844L76.791 113.676H79.167L78.159 110.844C78.087 110.616 78.003 110.352 77.979 110.172C77.943 110.34 77.871 110.604 77.787 110.844ZM86.675 117H83.519V108.228H86.591C89.183 108.228 90.971 110.016 90.971 112.632C90.971 115.212 89.219 117 86.675 117ZM86.447 109.644H85.055V115.584H86.531C88.283 115.584 89.351 114.456 89.351 112.632C89.351 110.772 88.259 109.644 86.447 109.644ZM94.3698 117H92.8818V108.228H94.3698L97.2018 115.212L100.034 108.228H101.546V117H100.058V114.3C100.058 112.536 100.058 112.02 100.142 111.396L97.9098 117H96.4938L94.2738 111.408C94.3578 111.936 94.3698 112.764 94.3698 113.856V117ZM105.503 108.228V117H103.967V108.228H105.503ZM109.44 117H107.928V108.228H109.452L113.568 114.444V108.228H115.08V117H113.568L109.44 110.784V117Z" fill="white"/>
</svg>
